<svg xmlns="http://www.w3.org/2000/svg" viewBox="0 0 1280 900" width="1280" height="900">
<style>
text { font-family: 'Helvetica Neue', Helvetica, Arial, 'PingFang SC', 'Microsoft YaHei', 'SimHei', sans-serif; fill: #111827; }
.title { font-size: 22px; font-weight: 700; }
.subtitle { font-size: 12px; fill: #6b7280; }
.label { font-size: 14px; font-weight: 600; }
.small { font-size: 12px; fill: #4b5563; }
.tiny { font-size: 11px; fill: #6b7280; }
.container-title { font-size: 15px; font-weight: 700; fill: #374151; }
</style>
<defs>
  <marker id="arrow-blue" markerWidth="10" markerHeight="7" refX="9" refY="3.5" orient="auto"><polygon points="0 0, 10 3.5, 0 7" fill="#2563eb"/></marker>
  <marker id="arrow-green" markerWidth="10" markerHeight="7" refX="9" refY="3.5" orient="auto"><polygon points="0 0, 10 3.5, 0 7" fill="#16a34a"/></marker>
  <marker id="arrow-purple" markerWidth="10" markerHeight="7" refX="9" refY="3.5" orient="auto"><polygon points="0 0, 10 3.5, 0 7" fill="#9333ea"/></marker>
  <marker id="arrow-orange" markerWidth="10" markerHeight="7" refX="9" refY="3.5" orient="auto"><polygon points="0 0, 10 3.5, 0 7" fill="#ea580c"/></marker>
  <marker id="arrow-gray" markerWidth="10" markerHeight="7" refX="9" refY="3.5" orient="auto"><polygon points="0 0, 10 3.5, 0 7" fill="#6b7280"/></marker>
</defs>
<rect width="1280" height="900" fill="#ffffff"/>
<text x="40" y="38" class="title">Market 发布、下载、热榜与补偿流程</text>
<rect x="45" y="82" width="220" height="700" rx="14" fill="#fff7ed" fill-opacity="0.45" stroke="#fed7aa" stroke-width="1.5" stroke-dasharray="8 5"/>
<text x="61" y="106" class="container-title">调用方</text>
<rect x="75" y="145" width="160" height="65" rx="10" fill="#fff7ed" stroke="#fed7aa" stroke-width="1.5"/>
<text x="155.0" y="169.5" text-anchor="middle" class="label">开发者</text>
<text x="155.0" y="188.5" text-anchor="middle" class="small">发布/更新/删除</text>
<rect x="75" y="600" width="160" height="65" rx="10" fill="#fff7ed" stroke="#fed7aa" stroke-width="1.5"/>
<text x="155.0" y="624.5" text-anchor="middle" class="label">用户/访客</text>
<text x="155.0" y="643.5" text-anchor="middle" class="small">列表/下载/热榜</text>
<rect x="305" y="82" width="500" height="700" rx="14" fill="#eff6ff" fill-opacity="0.45" stroke="#bfdbfe" stroke-width="1.5" stroke-dasharray="8 5"/>
<text x="321" y="106" class="container-title">Market Service</text>
<rect x="335" y="120" width="190" height="62" rx="10" fill="#faf5ff" stroke="#ddd6fe" stroke-width="1.5"/>
<text x="430.0" y="143.0" text-anchor="middle" class="label">PublishApp</text>
<text x="430.0" y="162.0" text-anchor="middle" class="small">multipart +</text>
<text x="430.0" y="176.0" text-anchor="middle" class="small">idempotency</text>
<rect x="585" y="120" width="190" height="62" rx="10" fill="#faf5ff" stroke="#ddd6fe" stroke-width="1.5"/>
<text x="680.0" y="135.0" text-anchor="middle" class="label">Update/OffShe</text>
<text x="680.0" y="152.0" text-anchor="middle" class="label">lf/Delete</text>
<text x="680.0" y="171.0" text-anchor="middle" class="small">所有者校验</text>
<rect x="335" y="270" width="190" height="62" rx="10" fill="#f0fdf4" stroke="#bbf7d0" stroke-width="1.5"/>
<text x="430.0" y="293.0" text-anchor="middle" class="label">临时文件校验</text>
<text x="430.0" y="312.0" text-anchor="middle" class="small">扩展名 + 文件头 +</text>
<text x="430.0" y="326.0" text-anchor="middle" class="small">sha256</text>
<rect x="585" y="270" width="190" height="62" rx="10" fill="#f0fdf4" stroke="#bbf7d0" stroke-width="1.5"/>
<text x="680.0" y="293.0" text-anchor="middle" class="label">Repository</text>
<text x="680.0" y="312.0" text-anchor="middle" class="small">apps + metrics</text>
<rect x="335" y="470" width="190" height="62" rx="10" fill="#faf5ff" stroke="#ddd6fe" stroke-width="1.5"/>
<text x="430.0" y="493.0" text-anchor="middle" class="label">DownloadApp</text>
<text x="430.0" y="512.0" text-anchor="middle" class="small">状态校验 + 预签名 URL</text>
<rect x="585" y="470" width="190" height="62" rx="10" fill="#faf5ff" stroke="#ddd6fe" stroke-width="1.5"/>
<text x="680.0" y="493.0" text-anchor="middle" class="label">GetRankings</text>
<text x="680.0" y="512.0" text-anchor="middle" class="small">Redis ZSET + App</text>
<text x="680.0" y="526.0" text-anchor="middle" class="small">回填</text>
<rect x="460" y="635" width="190" height="62" rx="10" fill="#faf5ff" stroke="#ddd6fe" stroke-width="1.5"/>
<text x="555.0" y="650.0" text-anchor="middle" class="label">Audit/Compens</text>
<text x="555.0" y="667.0" text-anchor="middle" class="label">ation</text>
<text x="555.0" y="686.0" text-anchor="middle" class="small">channel + retry</text>
<text x="555.0" y="700.0" text-anchor="middle" class="small">worker</text>
<rect x="850" y="82" width="370" height="700" rx="14" fill="#f9fafb" fill-opacity="0.45" stroke="#d1d5db" stroke-width="1.5" stroke-dasharray="8 5"/>
<text x="866" y="106" class="container-title">依赖</text>
<rect x="890" y="120" width="240" height="58" rx="10" fill="#f0fdf4" stroke="#bbf7d0" stroke-width="1.5"/>
<text x="1010.0" y="141.0" text-anchor="middle" class="label">Redis</text>
<text x="1010.0" y="160.0" text-anchor="middle" class="small">幂等锁 / daily weekly</text>
<text x="1010.0" y="174.0" text-anchor="middle" class="small">total 热榜</text>
<rect x="890" y="245" width="240" height="58" rx="10" fill="#f0fdfa" stroke="#99f6e4" stroke-width="1.5"/>
<text x="1010.0" y="266.0" text-anchor="middle" class="label">MinIO</text>
<text x="1010.0" y="285.0" text-anchor="middle" class="small">apps/{developer}/{app</text>
<text x="1010.0" y="299.0" text-anchor="middle" class="small">}/app.ext</text>
<rect x="890" y="370" width="240" height="58" rx="10" fill="#f0fdf4" stroke="#bbf7d0" stroke-width="1.5"/>
<text x="1010.0" y="391.0" text-anchor="middle" class="label">PostgreSQL apps</text>
<text x="1010.0" y="410.0" text-anchor="middle" class="small">metadata +</text>
<text x="1010.0" y="424.0" text-anchor="middle" class="small">idempotency 唯一索引</text>
<rect x="890" y="495" width="240" height="58" rx="10" fill="#f0fdf4" stroke="#bbf7d0" stroke-width="1.5"/>
<text x="1010.0" y="508.0" text-anchor="middle" class="label">app_download_metr</text>
<text x="1010.0" y="525.0" text-anchor="middle" class="label">ics</text>
<text x="1010.0" y="544.0" text-anchor="middle" class="small">长期下载统计</text>
<rect x="890" y="620" width="240" height="58" rx="10" fill="#faf5ff" stroke="#ddd6fe" stroke-width="1.5"/>
<text x="1010.0" y="633.0" text-anchor="middle" class="label">audit_events /</text>
<text x="1010.0" y="650.0" text-anchor="middle" class="label">minio_delete_retries</text>
<text x="1010.0" y="669.0" text-anchor="middle" class="small">审计与删除补偿</text>
<path d="M 235 178 L 335 151" fill="none" stroke="#2563eb" stroke-width="1.8" marker-end="url(#arrow-blue)"/>
<rect x="239" y="133" width="96" height="19" rx="8" fill="#ffffff" opacity="0.92"/>
<text x="287" y="148" text-anchor="middle" class="tiny">POST /apps</text>
<path d="M 525 151 L 890 149" fill="none" stroke="#16a34a" stroke-width="1.8" marker-end="url(#arrow-green)"/>
<rect x="659" y="121" width="96" height="19" rx="8" fill="#ffffff" opacity="0.92"/>
<text x="707" y="136" text-anchor="middle" class="tiny">SetNX 锁</text>
<path d="M 430 182 L 430 270" fill="none" stroke="#16a34a" stroke-width="1.8" marker-end="url(#arrow-green)"/>
<rect x="452" y="210" width="96" height="19" rx="8" fill="#ffffff" opacity="0.92"/>
<text x="500" y="225" text-anchor="middle" class="tiny">保存临时文件</text>
<path d="M 525 301 L 890 274" fill="none" stroke="#16a34a" stroke-width="1.8" marker-end="url(#arrow-green)"/>
<rect x="656" y="271" width="96" height="19" rx="8" fill="#ffffff" opacity="0.92"/>
<text x="704" y="286" text-anchor="middle" class="tiny">上传对象</text>
<path d="M 525 301 L 585 301" fill="none" stroke="#2563eb" stroke-width="1.8" marker-end="url(#arrow-blue)"/>
<rect x="507" y="274" width="96" height="19" rx="8" fill="#ffffff" opacity="0.92"/>
<text x="555" y="289" text-anchor="middle" class="tiny">装配 metadata</text>
<path d="M 775 301 L 890 399" fill="none" stroke="#16a34a" stroke-width="1.8" marker-end="url(#arrow-green)"/>
<rect x="784" y="325" width="96" height="19" rx="8" fill="#ffffff" opacity="0.92"/>
<text x="832" y="340" text-anchor="middle" class="tiny">写 apps</text>
<path d="M 585 151 L 890 399" fill="none" stroke="#16a34a" stroke-width="1.8" marker-end="url(#arrow-green)"/>
<rect x="767" y="215" width="96" height="19" rx="8" fill="#ffffff" opacity="0.92"/>
<text x="815" y="230" text-anchor="middle" class="tiny">字段更新/删除</text>
<path d="M 775 151 L 890 649" fill="none" stroke="#9333ea" stroke-width="1.8" marker-end="url(#arrow-purple)" stroke-dasharray="5 4"/>
<rect x="792" y="565" width="96" height="19" rx="8" fill="#ffffff" opacity="0.92"/>
<text x="840" y="580" text-anchor="middle" class="tiny">删除失败入队</text>
<path d="M 235 632 L 335 501" fill="none" stroke="#2563eb" stroke-width="1.8" marker-end="url(#arrow-blue)"/>
<rect x="242" y="545" width="96" height="19" rx="8" fill="#ffffff" opacity="0.92"/>
<text x="290" y="560" text-anchor="middle" class="tiny">GET download</text>
<path d="M 525 501 L 890 274" fill="none" stroke="#16a34a" stroke-width="1.8" marker-end="url(#arrow-green)"/>
<rect x="657" y="375" width="96" height="19" rx="8" fill="#ffffff" opacity="0.92"/>
<text x="705" y="390" text-anchor="middle" class="tiny">预签名 URL</text>
<path d="M 525 501 L 890 524" fill="none" stroke="#16a34a" stroke-width="1.8" marker-end="url(#arrow-green)"/>
<rect x="660" y="520" width="96" height="19" rx="8" fill="#ffffff" opacity="0.92"/>
<text x="708" y="535" text-anchor="middle" class="tiny">指标落库</text>
<path d="M 525 501 L 890 149" fill="none" stroke="#16a34a" stroke-width="1.8" marker-end="url(#arrow-green)"/>
<rect x="692" y="435" width="96" height="19" rx="8" fill="#ffffff" opacity="0.92"/>
<text x="740" y="450" text-anchor="middle" class="tiny">ZINCRBY</text>
<path d="M 775 501 L 890 149" fill="none" stroke="#16a34a" stroke-width="1.8" marker-end="url(#arrow-green)"/>
<rect x="802" y="440" width="96" height="19" rx="8" fill="#ffffff" opacity="0.92"/>
<text x="850" y="455" text-anchor="middle" class="tiny">读排行</text>
<path d="M 650 635 L 890 649" fill="none" stroke="#9333ea" stroke-width="1.8" marker-end="url(#arrow-purple)" stroke-dasharray="5 4"/>
<rect x="717" y="611" width="96" height="19" rx="8" fill="#ffffff" opacity="0.92"/>
<text x="765" y="626" text-anchor="middle" class="tiny">批量落库</text>
<rect x="50" y="815" width="250" height="90" rx="10" fill="#ffffff" stroke="#e5e7eb"/>
<text x="64" y="835" class="small" font-weight="700">图例</text>
<line x1="64" y1="853" x2="94" y2="853" stroke="#2563eb" stroke-width="1.8" marker-end="url(#arrow-blue)"/>
<text x="104" y="857" class="tiny">HTTP 业务请求</text>
<line x1="64" y1="875" x2="94" y2="875" stroke="#16a34a" stroke-width="1.8" marker-end="url(#arrow-green)"/>
<text x="104" y="879" class="tiny">同步数据/对象读写</text>
<line x1="64" y1="897" x2="94" y2="897" stroke="#9333ea" stroke-width="1.8" marker-end="url(#arrow-purple)" stroke-dasharray="5 4"/>
<text x="104" y="901" class="tiny">审计与补偿异步路径</text>
</svg>