<svg xmlns="http://www.w3.org/2000/svg" viewBox="0 0 1200 800" width="1200" height="800">
<style>
text { font-family: 'Helvetica Neue', Helvetica, Arial, 'PingFang SC', 'Microsoft YaHei', 'SimHei', sans-serif; fill: #111827; }
.title { font-size: 22px; font-weight: 700; }
.subtitle { font-size: 12px; fill: #6b7280; }
.label { font-size: 14px; font-weight: 600; }
.small { font-size: 12px; fill: #4b5563; }
.tiny { font-size: 11px; fill: #6b7280; }
.container-title { font-size: 15px; font-weight: 700; fill: #374151; }
</style>
<defs>
  <marker id="arrow-blue" markerWidth="10" markerHeight="7" refX="9" refY="3.5" orient="auto"><polygon points="0 0, 10 3.5, 0 7" fill="#2563eb"/></marker>
  <marker id="arrow-green" markerWidth="10" markerHeight="7" refX="9" refY="3.5" orient="auto"><polygon points="0 0, 10 3.5, 0 7" fill="#16a34a"/></marker>
  <marker id="arrow-purple" markerWidth="10" markerHeight="7" refX="9" refY="3.5" orient="auto"><polygon points="0 0, 10 3.5, 0 7" fill="#9333ea"/></marker>
  <marker id="arrow-orange" markerWidth="10" markerHeight="7" refX="9" refY="3.5" orient="auto"><polygon points="0 0, 10 3.5, 0 7" fill="#ea580c"/></marker>
  <marker id="arrow-gray" markerWidth="10" markerHeight="7" refX="9" refY="3.5" orient="auto"><polygon points="0 0, 10 3.5, 0 7" fill="#6b7280"/></marker>
</defs>
<rect width="1200" height="800" fill="#ffffff"/>
<text x="40" y="38" class="title">虚拟钱包与流水业务流程图</text>
<rect x="55" y="90" width="260" height="590" rx="14" fill="#eff6ff" fill-opacity="0.45" stroke="#bfdbfe" stroke-width="1.5" stroke-dasharray="8 5"/>
<text x="71" y="114" class="container-title">当前已实现</text>
<rect x="90" y="150" width="190" height="65" rx="10" fill="#fff7ed" stroke="#fed7aa" stroke-width="1.5"/>
<text x="185.0" y="174.5" text-anchor="middle" class="label">gRPC Client</text>
<text x="185.0" y="193.5" text-anchor="middle" class="small">调用 WalletService</text>
<rect x="90" y="280" width="190" height="65" rx="10" fill="#faf5ff" stroke="#ddd6fe" stroke-width="1.5"/>
<text x="185.0" y="304.5" text-anchor="middle" class="label">GetWallet</text>
<text x="185.0" y="323.5" text-anchor="middle" class="small">查询钱包</text>
<rect x="90" y="410" width="190" height="65" rx="10" fill="#faf5ff" stroke="#ddd6fe" stroke-width="1.5"/>
<text x="185.0" y="426.5" text-anchor="middle" class="label">GetOrCreateWa</text>
<text x="185.0" y="443.5" text-anchor="middle" class="label">llet</text>
<text x="185.0" y="462.5" text-anchor="middle" class="small">不存在则创建</text>
<rect x="365" y="90" width="360" height="590" rx="14" fill="#f0fdf4" fill-opacity="0.45" stroke="#bbf7d0" stroke-width="1.5" stroke-dasharray="8 5"/>
<text x="381" y="114" class="container-title">Wallet Domain / Repository</text>
<rect x="405" y="150" width="240" height="65" rx="10" fill="#f0fdf4" stroke="#bbf7d0" stroke-width="1.5"/>
<text x="525.0" y="174.5" text-anchor="middle" class="label">WalletRepository</text>
<text x="525.0" y="193.5" text-anchor="middle" class="small">owner_type + owner_id</text>
<text x="525.0" y="207.5" text-anchor="middle" class="small">+ currency</text>
<rect x="405" y="280" width="240" height="65" rx="10" fill="#f0fdf4" stroke="#bbf7d0" stroke-width="1.5"/>
<text x="525.0" y="304.5" text-anchor="middle" class="label">wallets</text>
<text x="525.0" y="323.5" text-anchor="middle" class="small">余额/币种/状态</text>
<rect x="405" y="410" width="240" height="65" rx="10" fill="#f0fdf4" stroke="#bbf7d0" stroke-width="1.5"/>
<text x="525.0" y="426.5" text-anchor="middle" class="label">wallet_transactio</text>
<text x="525.0" y="443.5" text-anchor="middle" class="label">ns</text>
<text x="525.0" y="462.5" text-anchor="middle" class="small">流水/余额快照/幂等键</text>
<rect x="785" y="90" width="360" height="590" rx="14" fill="#fff7ed" fill-opacity="0.45" stroke="#fed7aa" stroke-width="1.5" stroke-dasharray="8 5"/>
<text x="801" y="114" class="container-title">推荐后续交易写链路</text>
<rect x="825" y="135" width="240" height="58" rx="10" fill="#fff7ed" stroke="#fed7aa" stroke-width="1.5"/>
<text x="945.0" y="148.0" text-anchor="middle" class="label">Credit / Debit /</text>
<text x="945.0" y="165.0" text-anchor="middle" class="label">Transfer</text>
<text x="945.0" y="184.0" text-anchor="middle" class="small">待实现 API</text>
<rect x="825" y="245" width="240" height="58" rx="10" fill="#fefce8" stroke="#fde68a" stroke-width="1.5"/>
<text x="945.0" y="266.0" text-anchor="middle" class="label">幂等检查</text>
<text x="945.0" y="285.0" text-anchor="middle" class="small">idempotency_key 唯一</text>
<rect x="825" y="355" width="240" height="58" rx="10" fill="#fef2f2" stroke="#fecaca" stroke-width="1.5"/>
<text x="945.0" y="376.0" text-anchor="middle" class="label">事务扣款</text>
<text x="945.0" y="395.0" text-anchor="middle" class="small">SELECT FOR UPDATE 或条件</text>
<text x="945.0" y="409.0" text-anchor="middle" class="small">UPDATE</text>
<rect x="825" y="465" width="240" height="58" rx="10" fill="#faf5ff" stroke="#ddd6fe" stroke-width="1.5"/>
<text x="945.0" y="486.0" text-anchor="middle" class="label">写流水</text>
<text x="945.0" y="505.0" text-anchor="middle" class="small">balance_after 快照</text>
<rect x="825" y="575" width="240" height="58" rx="10" fill="#f0fdf4" stroke="#bbf7d0" stroke-width="1.5"/>
<text x="945.0" y="596.0" text-anchor="middle" class="label">返回余额</text>
<text x="945.0" y="615.0" text-anchor="middle" class="small">余额不足不写流水</text>
<path d="M 280 183 L 405 183" fill="none" stroke="#2563eb" stroke-width="1.8" marker-end="url(#arrow-blue)"/>
<rect x="294" y="155" width="96" height="19" rx="8" fill="#ffffff" opacity="0.92"/>
<text x="342" y="170" text-anchor="middle" class="tiny">gRPC</text>
<path d="M 280 313 L 405 183" fill="none" stroke="#16a34a" stroke-width="1.8" marker-end="url(#arrow-green)"/>
<rect x="297" y="235" width="96" height="19" rx="8" fill="#ffffff" opacity="0.92"/>
<text x="345" y="250" text-anchor="middle" class="tiny">FindByOwner</text>
<path d="M 280 443 L 405 183" fill="none" stroke="#16a34a" stroke-width="1.8" marker-end="url(#arrow-green)"/>
<rect x="297" y="363" width="96" height="19" rx="8" fill="#ffffff" opacity="0.92"/>
<text x="345" y="378" text-anchor="middle" class="tiny">GetOrCreate</text>
<path d="M 525 215 L 525 280" fill="none" stroke="#16a34a" stroke-width="1.8" marker-end="url(#arrow-green)"/>
<rect x="512" y="233" width="96" height="19" rx="8" fill="#ffffff" opacity="0.92"/>
<text x="560" y="248" text-anchor="middle" class="tiny">读/写</text>
<path d="M 645 443 L 825 494" fill="none" stroke="#9333ea" stroke-width="1.8" marker-end="url(#arrow-purple)" stroke-dasharray="5 4"/>
<rect x="692" y="440" width="96" height="19" rx="8" fill="#ffffff" opacity="0.92"/>
<text x="740" y="455" text-anchor="middle" class="tiny">未来流水写入</text>
<path d="M 945 193 L 945 245" fill="none" stroke="#2563eb" stroke-width="1.8" marker-end="url(#arrow-blue)"/>
<path d="M 945 303 L 945 355" fill="none" stroke="#2563eb" stroke-width="1.8" marker-end="url(#arrow-blue)"/>
<path d="M 945 413 L 945 465" fill="none" stroke="#2563eb" stroke-width="1.8" marker-end="url(#arrow-blue)"/>
<path d="M 945 523 L 945 575" fill="none" stroke="#2563eb" stroke-width="1.8" marker-end="url(#arrow-blue)"/>
<path d="M 825 384 L 645 313" fill="none" stroke="#16a34a" stroke-width="1.8" marker-end="url(#arrow-green)"/>
<rect x="687" y="320" width="96" height="19" rx="8" fill="#ffffff" opacity="0.92"/>
<text x="735" y="335" text-anchor="middle" class="tiny">锁钱包行/更新余额</text>
<path d="M 825 494 L 645 443" fill="none" stroke="#16a34a" stroke-width="1.8" marker-end="url(#arrow-green)"/>
<rect x="687" y="460" width="96" height="19" rx="8" fill="#ffffff" opacity="0.92"/>
<text x="735" y="475" text-anchor="middle" class="tiny">插入流水</text>
<rect x="60" y="715" width="250" height="90" rx="10" fill="#ffffff" stroke="#e5e7eb"/>
<text x="74" y="735" class="small" font-weight="700">图例</text>
<line x1="74" y1="753" x2="104" y2="753" stroke="#2563eb" stroke-width="1.8" marker-end="url(#arrow-blue)"/>
<text x="114" y="757" class="tiny">服务调用</text>
<line x1="74" y1="775" x2="104" y2="775" stroke="#16a34a" stroke-width="1.8" marker-end="url(#arrow-green)"/>
<text x="114" y="779" class="tiny">数据库读写</text>
<line x1="74" y1="797" x2="104" y2="797" stroke="#9333ea" stroke-width="1.8" marker-end="url(#arrow-purple)" stroke-dasharray="5 4"/>
<text x="114" y="801" class="tiny">待实现流水路径</text>
</svg>