<svg xmlns="http://www.w3.org/2000/svg" viewBox="0 0 1280 860" width="1280" height="860">
<style>
text { font-family: 'Helvetica Neue', Helvetica, Arial, 'PingFang SC', 'Microsoft YaHei', 'SimHei', sans-serif; fill: #111827; }
.title { font-size: 22px; font-weight: 700; }
.label { font-size: 14px; font-weight: 600; }
.small { font-size: 12px; fill: #4b5563; }
.tiny { font-size: 11px; fill: #6b7280; }
.container-title { font-size: 15px; font-weight: 700; fill: #374151; }
</style>
<defs>
  <marker id="arrow-blue" markerWidth="10" markerHeight="7" refX="9" refY="3.5" orient="auto"><polygon points="0 0, 10 3.5, 0 7" fill="#2563eb"/></marker>
  <marker id="arrow-green" markerWidth="10" markerHeight="7" refX="9" refY="3.5" orient="auto"><polygon points="0 0, 10 3.5, 0 7" fill="#16a34a"/></marker>
  <marker id="arrow-purple" markerWidth="10" markerHeight="7" refX="9" refY="3.5" orient="auto"><polygon points="0 0, 10 3.5, 0 7" fill="#9333ea"/></marker>
  <marker id="arrow-orange" markerWidth="10" markerHeight="7" refX="9" refY="3.5" orient="auto"><polygon points="0 0, 10 3.5, 0 7" fill="#ea580c"/></marker>
  <marker id="arrow-gray" markerWidth="10" markerHeight="7" refX="9" refY="3.5" orient="auto"><polygon points="0 0, 10 3.5, 0 7" fill="#6b7280"/></marker>
  <marker id="arrow-red" markerWidth="10" markerHeight="7" refX="9" refY="3.5" orient="auto"><polygon points="0 0, 10 3.5, 0 7" fill="#dc2626"/></marker>
</defs>
<rect width="1280" height="860" fill="#ffffff"/>
<text x="40" y="38" class="title">Docker Compose 本地部署架构图</text>
<rect x="40" y="80" width="260" height="640" rx="14" fill="#fff7ed" fill-opacity="0.45" stroke="#fed7aa" stroke-width="1.5" stroke-dasharray="8 5"/>
<text x="56" y="104" class="container-title">宿主机入口</text>
<rect x="75" y="140" width="190" height="58" rx="10" fill="#fff7ed" stroke="#fed7aa" stroke-width="1.5"/>
<text x="170.0" y="161.0" text-anchor="middle" class="label">Browser / API</text>
<text x="170.0" y="180.0" text-anchor="middle" class="small">localhost:12660</text>
<rect x="75" y="230" width="190" height="58" rx="10" fill="#fff7ed" stroke="#fed7aa" stroke-width="1.5"/>
<text x="170.0" y="251.0" text-anchor="middle" class="label">Grafana UI</text>
<text x="170.0" y="270.0" text-anchor="middle" class="small">localhost:3000</text>
<rect x="75" y="320" width="190" height="58" rx="10" fill="#fff7ed" stroke="#fed7aa" stroke-width="1.5"/>
<text x="170.0" y="341.0" text-anchor="middle" class="label">MinIO Console</text>
<text x="170.0" y="360.0" text-anchor="middle" class="small">localhost:9001</text>
<rect x="75" y="410" width="190" height="58" rx="10" fill="#fff7ed" stroke="#fed7aa" stroke-width="1.5"/>
<text x="170.0" y="423.0" text-anchor="middle" class="label">RocketMQ Dash</text>
<text x="170.0" y="440.0" text-anchor="middle" class="label">board</text>
<text x="170.0" y="459.0" text-anchor="middle" class="small">localhost:8080</text>
<rect x="345" y="80" width="430" height="640" rx="14" fill="#eff6ff" fill-opacity="0.45" stroke="#bfdbfe" stroke-width="1.5" stroke-dasharray="8 5"/>
<text x="361" y="104" class="container-title">应用与中间件网络 script_default</text>
<rect x="380" y="130" width="170" height="70" rx="10" fill="#eff6ff" stroke="#bfdbfe" stroke-width="1.5"/>
<text x="465.0" y="157.0" text-anchor="middle" class="label">RPA-app</text>
<text x="465.0" y="176.0" text-anchor="middle" class="small">HTTP 12660 / gR</text>
<text x="465.0" y="190.0" text-anchor="middle" class="small">PC 12661</text>
<rect x="585" y="130" width="150" height="70" rx="10" fill="#f0fdf4" stroke="#bbf7d0" stroke-width="1.5"/>
<text x="660.0" y="157.0" text-anchor="middle" class="label">PostgreSQL</text>
<text x="660.0" y="176.0" text-anchor="middle" class="small">5432 + init_b</text>
<text x="660.0" y="190.0" text-anchor="middle" class="small">etter.sql</text>
<rect x="380" y="250" width="150" height="64" rx="10" fill="#f0fdf4" stroke="#bbf7d0" stroke-width="1.5"/>
<text x="455.0" y="274.0" text-anchor="middle" class="label">Redis</text>
<text x="455.0" y="293.0" text-anchor="middle" class="small">6379 + redis.</text>
<text x="455.0" y="307.0" text-anchor="middle" class="small">conf</text>
<rect x="585" y="250" width="150" height="64" rx="10" fill="#f0fdfa" stroke="#99f6e4" stroke-width="1.5"/>
<text x="660.0" y="274.0" text-anchor="middle" class="label">MinIO</text>
<text x="660.0" y="293.0" text-anchor="middle" class="small">9000 API / rp</text>
<text x="660.0" y="307.0" text-anchor="middle" class="small">a-bucket</text>
<rect x="380" y="370" width="150" height="64" rx="10" fill="#fff7ed" stroke="#fed7aa" stroke-width="1.5"/>
<text x="455.0" y="386.0" text-anchor="middle" class="label">RocketMQ N</text>
<text x="455.0" y="403.0" text-anchor="middle" class="label">ameSrv</text>
<text x="455.0" y="422.0" text-anchor="middle" class="small">9876</text>
<rect x="585" y="370" width="150" height="64" rx="10" fill="#fff7ed" stroke="#fed7aa" stroke-width="1.5"/>
<text x="660.0" y="386.0" text-anchor="middle" class="label">RocketMQ B</text>
<text x="660.0" y="403.0" text-anchor="middle" class="label">roker</text>
<text x="660.0" y="422.0" text-anchor="middle" class="small">10909/10911/1</text>
<text x="660.0" y="436.0" text-anchor="middle" class="small">0912</text>
<rect x="480" y="505" width="170" height="64" rx="10" fill="#f0fdfa" stroke="#99f6e4" stroke-width="1.5"/>
<text x="565.0" y="529.0" text-anchor="middle" class="label">minio-setup</text>
<text x="565.0" y="548.0" text-anchor="middle" class="small">创建 loki-bucket</text>
<rect x="825" y="80" width="395" height="640" rx="14" fill="#faf5ff" fill-opacity="0.45" stroke="#ddd6fe" stroke-width="1.5" stroke-dasharray="8 5"/>
<text x="841" y="104" class="container-title">可观测与压测</text>
<rect x="865" y="130" width="170" height="60" rx="10" fill="#faf5ff" stroke="#ddd6fe" stroke-width="1.5"/>
<text x="950.0" y="152.0" text-anchor="middle" class="label">Prometheus</text>
<text x="950.0" y="171.0" text-anchor="middle" class="small">9090 metrics</text>
<rect x="865" y="230" width="170" height="60" rx="10" fill="#faf5ff" stroke="#ddd6fe" stroke-width="1.5"/>
<text x="950.0" y="252.0" text-anchor="middle" class="label">Loki</text>
<text x="950.0" y="271.0" text-anchor="middle" class="small">3100 logs -&gt; Mi</text>
<text x="950.0" y="285.0" text-anchor="middle" class="small">nIO</text>
<rect x="865" y="330" width="170" height="60" rx="10" fill="#faf5ff" stroke="#ddd6fe" stroke-width="1.5"/>
<text x="950.0" y="352.0" text-anchor="middle" class="label">Grafana</text>
<text x="950.0" y="371.0" text-anchor="middle" class="small">3000 dashboards</text>
<rect x="865" y="430" width="170" height="60" rx="10" fill="#faf5ff" stroke="#ddd6fe" stroke-width="1.5"/>
<text x="950.0" y="452.0" text-anchor="middle" class="label">Alloy</text>
<text x="950.0" y="471.0" text-anchor="middle" class="small">Docker logs col</text>
<text x="950.0" y="485.0" text-anchor="middle" class="small">lector</text>
<rect x="865" y="530" width="170" height="60" rx="10" fill="#faf5ff" stroke="#ddd6fe" stroke-width="1.5"/>
<text x="950.0" y="552.0" text-anchor="middle" class="label">cAdvisor</text>
<text x="950.0" y="571.0" text-anchor="middle" class="small">8082 container </text>
<text x="950.0" y="585.0" text-anchor="middle" class="small">metrics</text>
<rect x="1045" y="530" width="130" height="60" rx="10" fill="#fef2f2" stroke="#fecaca" stroke-width="1.5"/>
<text x="1110.0" y="552.0" text-anchor="middle" class="label">K6</text>
<text x="1110.0" y="571.0" text-anchor="middle" class="small">manual prof</text>
<text x="1110.0" y="585.0" text-anchor="middle" class="small">ile</text>
<path d="M 265 169 L 380 165" fill="none" stroke="#2563eb" stroke-width="1.8" marker-end="url(#arrow-blue)"/>
<rect x="271" y="138" width="104" height="19" rx="8" fill="#ffffff" opacity="0.92"/>
<text x="323" y="153" text-anchor="middle" class="tiny">HTTP</text>
<path d="M 550 165 L 585 165" fill="none" stroke="#16a34a" stroke-width="1.8" marker-end="url(#arrow-green)"/>
<rect x="516" y="138" width="104" height="19" rx="8" fill="#ffffff" opacity="0.92"/>
<text x="568" y="153" text-anchor="middle" class="tiny">SQL</text>
<path d="M 465 200 L 455 250" fill="none" stroke="#16a34a" stroke-width="1.8" marker-end="url(#arrow-green)"/>
<rect x="458" y="215" width="104" height="19" rx="8" fill="#ffffff" opacity="0.92"/>
<text x="510" y="230" text-anchor="middle" class="tiny">Session/热榜</text>
<path d="M 550 165 L 585 282" fill="none" stroke="#16a34a" stroke-width="1.8" marker-end="url(#arrow-green)"/>
<rect x="528" y="217" width="104" height="19" rx="8" fill="#ffffff" opacity="0.92"/>
<text x="580" y="232" text-anchor="middle" class="tiny">对象</text>
<path d="M 530 402 L 585 402" fill="none" stroke="#ea580c" stroke-width="1.8" marker-end="url(#arrow-orange)"/>
<rect x="506" y="375" width="104" height="19" rx="8" fill="#ffffff" opacity="0.92"/>
<text x="558" y="390" text-anchor="middle" class="tiny">MQ</text>
<path d="M 650 505 L 660 314" fill="none" stroke="#0d9488" stroke-width="1.8" marker-end="url(#arrow-green)" stroke-dasharray="5 4"/>
<rect x="653" y="445" width="104" height="19" rx="8" fill="#ffffff" opacity="0.92"/>
<text x="705" y="460" text-anchor="middle" class="tiny">bucket init</text>
<path d="M 735 165 L 865 160" fill="none" stroke="#9333ea" stroke-width="1.8" marker-end="url(#arrow-purple)" stroke-dasharray="5 4"/>
<rect x="748" y="130" width="104" height="19" rx="8" fill="#ffffff" opacity="0.92"/>
<text x="800" y="145" text-anchor="middle" class="tiny">metrics</text>
<path d="M 1035 260 L 585 282" fill="none" stroke="#9333ea" stroke-width="1.8" marker-end="url(#arrow-purple)" stroke-dasharray="5 4"/>
<rect x="760" y="277" width="104" height="19" rx="8" fill="#ffffff" opacity="0.92"/>
<text x="812" y="292" text-anchor="middle" class="tiny">日志对象存储</text>
<path d="M 1035 360 L 1035 260" fill="none" stroke="#9333ea" stroke-width="1.8" marker-end="url(#arrow-purple)"/>
<rect x="1038" y="295" width="104" height="19" rx="8" fill="#ffffff" opacity="0.92"/>
<text x="1090" y="310" text-anchor="middle" class="tiny">查询 Loki</text>
<path d="M 1035 360 L 1035 160" fill="none" stroke="#9333ea" stroke-width="1.8" marker-end="url(#arrow-purple)"/>
<rect x="1068" y="205" width="104" height="19" rx="8" fill="#ffffff" opacity="0.92"/>
<text x="1120" y="220" text-anchor="middle" class="tiny">查询 Prometheus</text>
<path d="M 950 490 L 950 530" fill="none" stroke="#9333ea" stroke-width="1.8" marker-end="url(#arrow-purple)" stroke-dasharray="5 4"/>
<rect x="933" y="497" width="104" height="19" rx="8" fill="#ffffff" opacity="0.92"/>
<text x="985" y="512" text-anchor="middle" class="tiny">采集</text>
<path d="M 1045 560 L 550 165" fill="none" stroke="#dc2626" stroke-width="1.8" marker-end="url(#arrow-red)" stroke-dasharray="5 4"/>
<rect x="728" y="665" width="104" height="19" rx="8" fill="#ffffff" opacity="0.92"/>
<text x="780" y="680" text-anchor="middle" class="tiny">压测 HTTP</text>
<rect x="45" y="760" width="290" height="134" rx="10" fill="#ffffff" stroke="#e5e7eb"/>
<text x="59" y="780" class="small" font-weight="700">图例</text>
<line x1="59" y1="798" x2="89" y2="798" stroke="#2563eb" stroke-width="1.8" marker-end="url(#arrow-blue)"/>
<text x="99" y="802" class="tiny">业务访问</text>
<line x1="59" y1="820" x2="89" y2="820" stroke="#16a34a" stroke-width="1.8" marker-end="url(#arrow-green)"/>
<text x="99" y="824" class="tiny">应用依赖</text>
<line x1="59" y1="842" x2="89" y2="842" stroke="#ea580c" stroke-width="1.8" marker-end="url(#arrow-orange)"/>
<text x="99" y="846" class="tiny">MQ 通信</text>
<line x1="59" y1="864" x2="89" y2="864" stroke="#9333ea" stroke-width="1.8" marker-end="url(#arrow-purple)" stroke-dasharray="5 4"/>
<text x="99" y="868" class="tiny">监控/日志</text>
<line x1="59" y1="886" x2="89" y2="886" stroke="#dc2626" stroke-width="1.8" marker-end="url(#arrow-red)" stroke-dasharray="5 4"/>
<text x="99" y="890" class="tiny">压测流量</text>
</svg>