<svg xmlns="http://www.w3.org/2000/svg" viewBox="0 0 1200 760" width="1200" height="760">
<style>
text { font-family: 'Helvetica Neue', Helvetica, Arial, 'PingFang SC', 'Microsoft YaHei', 'SimHei', sans-serif; fill: #111827; }
.title { font-size: 22px; font-weight: 700; }
.subtitle { font-size: 12px; fill: #6b7280; }
.label { font-size: 14px; font-weight: 600; }
.small { font-size: 12px; fill: #4b5563; }
.tiny { font-size: 11px; fill: #6b7280; }
.container-title { font-size: 15px; font-weight: 700; fill: #374151; }
</style>
<defs>
  <marker id="arrow-blue" markerWidth="10" markerHeight="7" refX="9" refY="3.5" orient="auto"><polygon points="0 0, 10 3.5, 0 7" fill="#2563eb"/></marker>
  <marker id="arrow-green" markerWidth="10" markerHeight="7" refX="9" refY="3.5" orient="auto"><polygon points="0 0, 10 3.5, 0 7" fill="#16a34a"/></marker>
  <marker id="arrow-purple" markerWidth="10" markerHeight="7" refX="9" refY="3.5" orient="auto"><polygon points="0 0, 10 3.5, 0 7" fill="#9333ea"/></marker>
  <marker id="arrow-orange" markerWidth="10" markerHeight="7" refX="9" refY="3.5" orient="auto"><polygon points="0 0, 10 3.5, 0 7" fill="#ea580c"/></marker>
  <marker id="arrow-gray" markerWidth="10" markerHeight="7" refX="9" refY="3.5" orient="auto"><polygon points="0 0, 10 3.5, 0 7" fill="#6b7280"/></marker>
</defs>
<rect width="1200" height="760" fill="#ffffff"/>
<text x="40" y="38" class="title">RPA Market 系统架构图</text>
<rect x="45" y="85" width="230" height="555" rx="14" fill="#fff7ed" fill-opacity="0.45" stroke="#fed7aa" stroke-width="1.5" stroke-dasharray="8 5"/>
<text x="61" y="109" class="container-title">客户端层</text>
<rect x="75" y="150" width="170" height="70" rx="10" fill="#fff7ed" stroke="#fed7aa" stroke-width="1.5"/>
<text x="160.0" y="177.0" text-anchor="middle" class="label">Vue 前端</text>
<text x="160.0" y="196.0" text-anchor="middle" class="small">components +</text>
<text x="160.0" y="210.0" text-anchor="middle" class="small">router</text>
<rect x="75" y="260" width="170" height="70" rx="10" fill="#fff7ed" stroke="#fed7aa" stroke-width="1.5"/>
<text x="160.0" y="287.0" text-anchor="middle" class="label">API Client</text>
<text x="160.0" y="306.0" text-anchor="middle" class="small">Cookie /</text>
<text x="160.0" y="320.0" text-anchor="middle" class="small">X-Trace-ID</text>
<rect x="320" y="85" width="500" height="555" rx="14" fill="#eff6ff" fill-opacity="0.45" stroke="#bfdbfe" stroke-width="1.5" stroke-dasharray="8 5"/>
<text x="336" y="109" class="container-title">应用进程 RPA-app</text>
<rect x="350" y="125" width="180" height="62" rx="10" fill="#eff6ff" stroke="#bfdbfe" stroke-width="1.5"/>
<text x="440.0" y="140.0" text-anchor="middle" class="label">Gin HTTP</text>
<text x="440.0" y="157.0" text-anchor="middle" class="label">:12660</text>
<text x="440.0" y="176.0" text-anchor="middle" class="small">REST API</text>
<rect x="590" y="125" width="180" height="62" rx="10" fill="#eff6ff" stroke="#bfdbfe" stroke-width="1.5"/>
<text x="680.0" y="148.0" text-anchor="middle" class="label">gRPC :12661</text>
<text x="680.0" y="167.0" text-anchor="middle" class="small">WalletService</text>
<rect x="350" y="230" width="180" height="70" rx="10" fill="#f0fdf4" stroke="#bbf7d0" stroke-width="1.5"/>
<text x="440.0" y="257.0" text-anchor="middle" class="label">全局中间件</text>
<text x="440.0" y="276.0" text-anchor="middle" class="small">Trace / 请求池 /</text>
<text x="440.0" y="290.0" text-anchor="middle" class="small">CORS</text>
<rect x="590" y="230" width="180" height="70" rx="10" fill="#f0fdf4" stroke="#bbf7d0" stroke-width="1.5"/>
<text x="680.0" y="257.0" text-anchor="middle" class="label">认证授权</text>
<text x="680.0" y="276.0" text-anchor="middle" class="small">JWT + Redis</text>
<text x="680.0" y="290.0" text-anchor="middle" class="small">Session + Casbin</text>
<rect x="350" y="350" width="180" height="80" rx="10" fill="#faf5ff" stroke="#ddd6fe" stroke-width="1.5"/>
<text x="440.0" y="382.0" text-anchor="middle" class="label">IAM 服务</text>
<text x="440.0" y="401.0" text-anchor="middle" class="small">用户/群组/RBAC</text>
<rect x="590" y="350" width="180" height="80" rx="10" fill="#faf5ff" stroke="#ddd6fe" stroke-width="1.5"/>
<text x="680.0" y="382.0" text-anchor="middle" class="label">Market 服务</text>
<text x="680.0" y="401.0" text-anchor="middle" class="small">发布/下载/排行</text>
<rect x="470" y="500" width="180" height="65" rx="10" fill="#faf5ff" stroke="#ddd6fe" stroke-width="1.5"/>
<text x="560.0" y="524.5" text-anchor="middle" class="label">Wallet 服务</text>
<text x="560.0" y="543.5" text-anchor="middle" class="small">Get/GetOrCreate</text>
<rect x="865" y="85" width="285" height="555" rx="14" fill="#f9fafb" fill-opacity="0.45" stroke="#d1d5db" stroke-width="1.5" stroke-dasharray="8 5"/>
<text x="881" y="109" class="container-title">基础设施层</text>
<rect x="905" y="130" width="205" height="60" rx="10" fill="#f0fdf4" stroke="#bbf7d0" stroke-width="1.5"/>
<text x="1007.5" y="152.0" text-anchor="middle" class="label">PostgreSQL</text>
<text x="1007.5" y="171.0" text-anchor="middle" class="small">用户/应用/钱包/审计</text>
<rect x="905" y="225" width="205" height="60" rx="10" fill="#f0fdf4" stroke="#bbf7d0" stroke-width="1.5"/>
<text x="1007.5" y="247.0" text-anchor="middle" class="label">Redis</text>
<text x="1007.5" y="266.0" text-anchor="middle" class="small">Session/限流/热榜/锁</text>
<rect x="905" y="320" width="205" height="60" rx="10" fill="#f0fdfa" stroke="#99f6e4" stroke-width="1.5"/>
<text x="1007.5" y="342.0" text-anchor="middle" class="label">MinIO</text>
<text x="1007.5" y="361.0" text-anchor="middle" class="small">头像/应用包/日志桶</text>
<rect x="905" y="415" width="205" height="60" rx="10" fill="#fff7ed" stroke="#fed7aa" stroke-width="1.5"/>
<text x="1007.5" y="437.0" text-anchor="middle" class="label">RocketMQ</text>
<text x="1007.5" y="456.0" text-anchor="middle" class="small">Casbin 缓存同步</text>
<rect x="905" y="510" width="205" height="60" rx="10" fill="#faf5ff" stroke="#ddd6fe" stroke-width="1.5"/>
<text x="1007.5" y="532.0" text-anchor="middle" class="label">Audit Worker</text>
<text x="1007.5" y="551.0" text-anchor="middle" class="small">批量落库/删除重试</text>
<path d="M 245 185 L 350 156" fill="none" stroke="#2563eb" stroke-width="1.8" marker-end="url(#arrow-blue)"/>
<rect x="247" y="135" width="96" height="19" rx="8" fill="#ffffff" opacity="0.92"/>
<text x="295" y="150" text-anchor="middle" class="tiny">REST</text>
<path d="M 530 156 L 590 156" fill="none" stroke="#6b7280" stroke-width="1.8" marker-end="url(#arrow-gray)" stroke-dasharray="5 4"/>
<rect x="512" y="130" width="96" height="19" rx="8" fill="#ffffff" opacity="0.92"/>
<text x="560" y="145" text-anchor="middle" class="tiny">同进程</text>
<path d="M 440 187 L 440 230" fill="none" stroke="#2563eb" stroke-width="1.8" marker-end="url(#arrow-blue)"/>
<path d="M 680 187 L 680 230" fill="none" stroke="#2563eb" stroke-width="1.8" marker-end="url(#arrow-blue)"/>
<path d="M 440 300 L 440 350" fill="none" stroke="#2563eb" stroke-width="1.8" marker-end="url(#arrow-blue)"/>
<path d="M 680 300 L 680 350" fill="none" stroke="#2563eb" stroke-width="1.8" marker-end="url(#arrow-blue)"/>
<path d="M 770 390 L 905 160" fill="none" stroke="#16a34a" stroke-width="1.8" marker-end="url(#arrow-green)"/>
<rect x="802" y="225" width="96" height="19" rx="8" fill="#ffffff" opacity="0.92"/>
<text x="850" y="240" text-anchor="middle" class="tiny">SQL</text>
<path d="M 770 390 L 905 255" fill="none" stroke="#16a34a" stroke-width="1.8" marker-end="url(#arrow-green)"/>
<rect x="794" y="289" width="96" height="19" rx="8" fill="#ffffff" opacity="0.92"/>
<text x="842" y="304" text-anchor="middle" class="tiny">Redis</text>
<path d="M 770 390 L 905 350" fill="none" stroke="#16a34a" stroke-width="1.8" marker-end="url(#arrow-green)"/>
<rect x="797" y="359" width="96" height="19" rx="8" fill="#ffffff" opacity="0.92"/>
<text x="845" y="374" text-anchor="middle" class="tiny">对象</text>
<path d="M 590 265 L 905 445" fill="none" stroke="#ea580c" stroke-width="1.8" marker-end="url(#arrow-orange)" stroke-dasharray="5 4"/>
<rect x="697" y="305" width="96" height="19" rx="8" fill="#ffffff" opacity="0.92"/>
<text x="745" y="320" text-anchor="middle" class="tiny">广播</text>
<path d="M 650 535 L 905 160" fill="none" stroke="#16a34a" stroke-width="1.8" marker-end="url(#arrow-green)"/>
<rect x="727" y="505" width="96" height="19" rx="8" fill="#ffffff" opacity="0.92"/>
<text x="775" y="520" text-anchor="middle" class="tiny">钱包表</text>
<path d="M 620 430 L 905 540" fill="none" stroke="#9333ea" stroke-width="1.8" marker-end="url(#arrow-purple)" stroke-dasharray="5 4"/>
<rect x="732" y="485" width="96" height="19" rx="8" fill="#ffffff" opacity="0.92"/>
<text x="780" y="500" text-anchor="middle" class="tiny">审计/补偿</text>
<rect x="50" y="665" width="250" height="112" rx="10" fill="#ffffff" stroke="#e5e7eb"/>
<text x="64" y="685" class="small" font-weight="700">图例</text>
<line x1="64" y1="703" x2="94" y2="703" stroke="#2563eb" stroke-width="1.8" marker-end="url(#arrow-blue)"/>
<text x="104" y="707" class="tiny">同步请求</text>
<line x1="64" y1="725" x2="94" y2="725" stroke="#16a34a" stroke-width="1.8" marker-end="url(#arrow-green)"/>
<text x="104" y="729" class="tiny">数据读写</text>
<line x1="64" y1="747" x2="94" y2="747" stroke="#ea580c" stroke-width="1.8" marker-end="url(#arrow-orange)" stroke-dasharray="5 4"/>
<text x="104" y="751" class="tiny">MQ 事件/缓存失效</text>
<line x1="64" y1="769" x2="94" y2="769" stroke="#9333ea" stroke-width="1.8" marker-end="url(#arrow-purple)" stroke-dasharray="5 4"/>
<text x="104" y="773" class="tiny">异步审计/补偿</text>
</svg>